# xmcd
#
# Track frame offsets:
#	150
#	11035
#	24466
#	39777
#	51163
#	61783
#	73642
#	88727
#	101016
#	113618
#	126866
#	139328
#	150507
#	165588
#	179292
#	192386
#	204777
#	217988
#
# Disc length: 3046
#
# Revision: 2
# Processed by: cddbd v1.5.1PL0 Copyright (c) Steve Scherf et al.
# Submitted via: dBpowerAMP V4.0
# Normalized: r0:TSWAP
#
DISCID=ec0be412
DTITLE=Various Artist - Country Love Songs
DYEAR=1900
DGENRE=Country
TTITLE0=Janie Fricke - She's Single Again
TTITLE1=Kenny Rogers - Ruby, Don't Take Your Love To Town
TTITLE2=Billie Jo Spears - Blanket On The Ground
TTITLE3=Patti Page - With My Eyes Wide Open I'm Dreaming
TTITLE4=Patsy Cline - Love Sick Blues
TTITLE5=Roy Clark - If I Had To Do It All Over Again
TTITLE6=Tony Orlando and Dawn - Candida
TTITLE7=Freddy Fender - Wasted Days And Wasted Nights
TTITLE8=Jerry Wallace - In The Misty Moonlight
TTITLE9=Crystal Gayle - Talking In Your Sleep
TTITLE10=Bobby Bare - 500 Miles Away From Home
TTITLE11=Conway Twitty - It's Only Make Believe
TTITLE12=Lynn Anderson - Desperado
TTITLE13=Willie Nelson - A Moment Isn't Very Long
TTITLE14=Slim Whitman - Red Sails In The Sunset
TTITLE15=Crystal Gayle - Don't It Make My Brown Eyes Blue
TTITLE16=Charlie Rich - The Most Beautiful Girl In The World
TTITLE17=Johnny Tillotson - Send Me The Pillow You Dream On
EXTD=
EXTT0=
EXTT1=
EXTT2=
EXTT3=
EXTT4=
EXTT5=
EXTT6=
EXTT7=
EXTT8=
EXTT9=
EXTT10=
EXTT11=
EXTT12=
EXTT13=
EXTT14=
EXTT15=
EXTT16=
EXTT17=
PLAYORDER=
